<mxfile host="app.diagrams.net" modified="2023-09-18T21:07:13.900Z" agent="Mozilla/5.0 (Windows NT 10.0; Win64; x64) AppleWebKit/537.36 (KHTML, like Gecko) Chrome/116.0.0.0 Safari/537.36 OPR/102.0.0.0" etag="Yg2Uf8K1mGP443tXWMG1" version="21.7.5" type="github">
  <diagram name="Страница — 1" id="zEwPG2Rf7rxG7eiGCEeS">
    <mxGraphModel dx="1062" dy="612" grid="1" gridSize="10" guides="1" tooltips="1" connect="1" arrows="1" fold="1" page="1" pageScale="1" pageWidth="827" pageHeight="1169" math="0" shadow="0">
      <root>
        <mxCell id="0" />
        <mxCell id="1" parent="0" />
        <mxCell id="aCeoo1v0vQvurUPuVx7p-3" value="" style="edgeStyle=orthogonalEdgeStyle;rounded=0;orthogonalLoop=1;jettySize=auto;html=1;" parent="1" target="aCeoo1v0vQvurUPuVx7p-2" edge="1">
          <mxGeometry relative="1" as="geometry">
            <mxPoint x="414.0000000000002" y="90" as="sourcePoint" />
          </mxGeometry>
        </mxCell>
        <mxCell id="aCeoo1v0vQvurUPuVx7p-7" value="" style="edgeStyle=orthogonalEdgeStyle;rounded=0;orthogonalLoop=1;jettySize=auto;html=1;" parent="1" source="aCeoo1v0vQvurUPuVx7p-2" edge="1">
          <mxGeometry relative="1" as="geometry">
            <mxPoint x="414" y="210" as="targetPoint" />
          </mxGeometry>
        </mxCell>
        <mxCell id="aCeoo1v0vQvurUPuVx7p-2" value="Generate a number" style="whiteSpace=wrap;html=1;aspect=fixed;" parent="1" vertex="1">
          <mxGeometry x="374" y="110" width="80" height="80" as="geometry" />
        </mxCell>
        <mxCell id="aCeoo1v0vQvurUPuVx7p-13" value="" style="edgeStyle=orthogonalEdgeStyle;rounded=0;orthogonalLoop=1;jettySize=auto;html=1;" parent="1" source="aCeoo1v0vQvurUPuVx7p-8" target="aCeoo1v0vQvurUPuVx7p-9" edge="1">
          <mxGeometry relative="1" as="geometry" />
        </mxCell>
        <mxCell id="aCeoo1v0vQvurUPuVx7p-8" value="Get user input" style="shape=parallelogram;perimeter=parallelogramPerimeter;whiteSpace=wrap;html=1;fixedSize=1;" parent="1" vertex="1">
          <mxGeometry x="354" y="210" width="120" height="60" as="geometry" />
        </mxCell>
        <mxCell id="aCeoo1v0vQvurUPuVx7p-11" value="" style="edgeStyle=orthogonalEdgeStyle;rounded=0;orthogonalLoop=1;jettySize=auto;html=1;" parent="1" source="aCeoo1v0vQvurUPuVx7p-9" edge="1">
          <mxGeometry relative="1" as="geometry">
            <mxPoint x="530" y="330" as="targetPoint" />
          </mxGeometry>
        </mxCell>
        <mxCell id="aCeoo1v0vQvurUPuVx7p-17" value="" style="edgeStyle=orthogonalEdgeStyle;rounded=0;orthogonalLoop=1;jettySize=auto;html=1;" parent="1" source="aCeoo1v0vQvurUPuVx7p-9" target="aCeoo1v0vQvurUPuVx7p-16" edge="1">
          <mxGeometry relative="1" as="geometry" />
        </mxCell>
        <mxCell id="aCeoo1v0vQvurUPuVx7p-9" value="Input is number?" style="rhombus;whiteSpace=wrap;html=1;" parent="1" vertex="1">
          <mxGeometry x="374" y="290" width="80" height="80" as="geometry" />
        </mxCell>
        <mxCell id="aCeoo1v0vQvurUPuVx7p-12" value="False" style="text;html=1;align=center;verticalAlign=middle;resizable=0;points=[];autosize=1;strokeColor=none;fillColor=none;" parent="1" vertex="1">
          <mxGeometry x="455" y="298" width="50" height="30" as="geometry" />
        </mxCell>
        <mxCell id="aCeoo1v0vQvurUPuVx7p-15" style="edgeStyle=orthogonalEdgeStyle;rounded=0;orthogonalLoop=1;jettySize=auto;html=1;entryX=1;entryY=0.5;entryDx=0;entryDy=0;exitX=0.563;exitY=-0.033;exitDx=0;exitDy=0;exitPerimeter=0;" parent="1" source="aCeoo1v0vQvurUPuVx7p-14" target="aCeoo1v0vQvurUPuVx7p-8" edge="1">
          <mxGeometry relative="1" as="geometry">
            <mxPoint x="580" y="220" as="targetPoint" />
          </mxGeometry>
        </mxCell>
        <mxCell id="aCeoo1v0vQvurUPuVx7p-14" value="Output&lt;br&gt;It isn`t number" style="shape=parallelogram;perimeter=parallelogramPerimeter;whiteSpace=wrap;html=1;fixedSize=1;" parent="1" vertex="1">
          <mxGeometry x="520" y="300" width="120" height="60" as="geometry" />
        </mxCell>
        <mxCell id="LjTXDFBQHUgV3BgNfix1-8" value="" style="edgeStyle=orthogonalEdgeStyle;rounded=0;orthogonalLoop=1;jettySize=auto;html=1;" edge="1" parent="1" source="aCeoo1v0vQvurUPuVx7p-16" target="LjTXDFBQHUgV3BgNfix1-5">
          <mxGeometry relative="1" as="geometry" />
        </mxCell>
        <mxCell id="aCeoo1v0vQvurUPuVx7p-16" value="Number bigger?" style="rhombus;whiteSpace=wrap;html=1;" parent="1" vertex="1">
          <mxGeometry x="374" y="398" width="80" height="80" as="geometry" />
        </mxCell>
        <mxCell id="aCeoo1v0vQvurUPuVx7p-18" value="Trrue" style="text;html=1;align=center;verticalAlign=middle;resizable=0;points=[];autosize=1;strokeColor=none;fillColor=none;" parent="1" vertex="1">
          <mxGeometry x="414" y="368" width="50" height="30" as="geometry" />
        </mxCell>
        <mxCell id="aCeoo1v0vQvurUPuVx7p-19" value="Number bigger" style="shape=parallelogram;perimeter=parallelogramPerimeter;whiteSpace=wrap;html=1;fixedSize=1;" parent="1" vertex="1">
          <mxGeometry x="505" y="408" width="120" height="60" as="geometry" />
        </mxCell>
        <mxCell id="aCeoo1v0vQvurUPuVx7p-22" style="edgeStyle=orthogonalEdgeStyle;rounded=0;orthogonalLoop=1;jettySize=auto;html=1;entryX=1;entryY=0.5;entryDx=0;entryDy=0;exitX=1;exitY=0.5;exitDx=0;exitDy=0;" parent="1" source="aCeoo1v0vQvurUPuVx7p-19" target="aCeoo1v0vQvurUPuVx7p-8" edge="1">
          <mxGeometry relative="1" as="geometry">
            <mxPoint x="671" y="408" as="sourcePoint" />
            <mxPoint x="570" y="240" as="targetPoint" />
            <Array as="points">
              <mxPoint x="671" y="438" />
              <mxPoint x="671" y="240" />
            </Array>
          </mxGeometry>
        </mxCell>
        <mxCell id="aCeoo1v0vQvurUPuVx7p-24" value="" style="edgeStyle=orthogonalEdgeStyle;rounded=0;orthogonalLoop=1;jettySize=auto;html=1;entryX=0;entryY=0.5;entryDx=0;entryDy=0;exitX=0.288;exitY=1.107;exitDx=0;exitDy=0;exitPerimeter=0;" parent="1" source="aCeoo1v0vQvurUPuVx7p-23" target="aCeoo1v0vQvurUPuVx7p-19" edge="1">
          <mxGeometry relative="1" as="geometry">
            <mxPoint x="454" y="438" as="sourcePoint" />
            <mxPoint x="515" y="438" as="targetPoint" />
            <Array as="points">
              <mxPoint x="459" y="438" />
              <mxPoint x="460" y="438" />
              <mxPoint x="460" y="440" />
              <mxPoint x="510" y="440" />
              <mxPoint x="510" y="438" />
            </Array>
          </mxGeometry>
        </mxCell>
        <mxCell id="aCeoo1v0vQvurUPuVx7p-25" value="" style="edgeStyle=orthogonalEdgeStyle;rounded=0;orthogonalLoop=1;jettySize=auto;html=1;" parent="1" source="aCeoo1v0vQvurUPuVx7p-23" target="aCeoo1v0vQvurUPuVx7p-12" edge="1">
          <mxGeometry relative="1" as="geometry" />
        </mxCell>
        <mxCell id="aCeoo1v0vQvurUPuVx7p-23" value="True" style="text;html=1;align=center;verticalAlign=middle;resizable=0;points=[];autosize=1;strokeColor=none;fillColor=none;spacing=3;fontSize=12;" parent="1" vertex="1">
          <mxGeometry x="455" y="408" width="50" height="30" as="geometry" />
        </mxCell>
        <mxCell id="aCeoo1v0vQvurUPuVx7p-29" value="" style="edgeStyle=orthogonalEdgeStyle;rounded=0;orthogonalLoop=1;jettySize=auto;html=1;entryX=0;entryY=0.5;entryDx=0;entryDy=0;exitX=0.5;exitY=0;exitDx=0;exitDy=0;" parent="1" source="aCeoo1v0vQvurUPuVx7p-26" target="aCeoo1v0vQvurUPuVx7p-8" edge="1">
          <mxGeometry relative="1" as="geometry">
            <mxPoint x="150" y="240" as="targetPoint" />
            <Array as="points">
              <mxPoint x="190" y="510" />
              <mxPoint x="190" y="240" />
            </Array>
            <mxPoint x="270" y="480" as="sourcePoint" />
          </mxGeometry>
        </mxCell>
        <mxCell id="aCeoo1v0vQvurUPuVx7p-33" value="" style="edgeStyle=orthogonalEdgeStyle;rounded=0;orthogonalLoop=1;jettySize=auto;html=1;" parent="1" source="aCeoo1v0vQvurUPuVx7p-31" edge="1">
          <mxGeometry relative="1" as="geometry">
            <mxPoint x="414.0000000000002" y="720" as="targetPoint" />
          </mxGeometry>
        </mxCell>
        <mxCell id="aCeoo1v0vQvurUPuVx7p-31" value="&lt;font style=&quot;font-size: 11px;&quot;&gt;You rght! Win yours&lt;/font&gt;" style="shape=parallelogram;perimeter=parallelogramPerimeter;whiteSpace=wrap;html=1;fixedSize=1;" parent="1" vertex="1">
          <mxGeometry x="354" y="620" width="120" height="60" as="geometry" />
        </mxCell>
        <mxCell id="aCeoo1v0vQvurUPuVx7p-26" value="number smaller" style="shape=parallelogram;perimeter=parallelogramPerimeter;whiteSpace=wrap;html=1;fixedSize=1;" parent="1" vertex="1">
          <mxGeometry x="140" y="510" width="120" height="60" as="geometry" />
        </mxCell>
        <mxCell id="LjTXDFBQHUgV3BgNfix1-6" value="" style="edgeStyle=orthogonalEdgeStyle;rounded=0;orthogonalLoop=1;jettySize=auto;html=1;" edge="1" parent="1" source="LjTXDFBQHUgV3BgNfix1-5" target="aCeoo1v0vQvurUPuVx7p-31">
          <mxGeometry relative="1" as="geometry" />
        </mxCell>
        <mxCell id="LjTXDFBQHUgV3BgNfix1-7" value="" style="edgeStyle=orthogonalEdgeStyle;rounded=0;orthogonalLoop=1;jettySize=auto;html=1;" edge="1" parent="1" source="LjTXDFBQHUgV3BgNfix1-5" target="aCeoo1v0vQvurUPuVx7p-26">
          <mxGeometry relative="1" as="geometry" />
        </mxCell>
        <mxCell id="LjTXDFBQHUgV3BgNfix1-5" value="Number smaller?/" style="rhombus;whiteSpace=wrap;html=1;" vertex="1" parent="1">
          <mxGeometry x="374" y="500" width="80" height="80" as="geometry" />
        </mxCell>
        <mxCell id="LjTXDFBQHUgV3BgNfix1-9" value="False" style="text;html=1;align=center;verticalAlign=middle;resizable=0;points=[];autosize=1;strokeColor=none;fillColor=none;" vertex="1" parent="1">
          <mxGeometry x="424" y="470" width="50" height="30" as="geometry" />
        </mxCell>
        <mxCell id="LjTXDFBQHUgV3BgNfix1-10" value="True" style="text;html=1;align=center;verticalAlign=middle;resizable=0;points=[];autosize=1;strokeColor=none;fillColor=none;" vertex="1" parent="1">
          <mxGeometry x="285" y="508" width="50" height="30" as="geometry" />
        </mxCell>
        <mxCell id="LjTXDFBQHUgV3BgNfix1-11" value="False" style="text;html=1;align=center;verticalAlign=middle;resizable=0;points=[];autosize=1;strokeColor=none;fillColor=none;" vertex="1" parent="1">
          <mxGeometry x="425" y="578" width="50" height="30" as="geometry" />
        </mxCell>
        <mxCell id="LjTXDFBQHUgV3BgNfix1-12" value="&lt;font style=&quot;font-size: 14px;&quot;&gt;Start&lt;/font&gt;" style="strokeWidth=2;html=1;shape=mxgraph.flowchart.terminator;whiteSpace=wrap;" vertex="1" parent="1">
          <mxGeometry x="364" y="30" width="100" height="60" as="geometry" />
        </mxCell>
        <mxCell id="LjTXDFBQHUgV3BgNfix1-13" value="&lt;font style=&quot;font-size: 14px;&quot;&gt;End&lt;/font&gt;" style="strokeWidth=2;html=1;shape=mxgraph.flowchart.terminator;whiteSpace=wrap;" vertex="1" parent="1">
          <mxGeometry x="364" y="720" width="100" height="60" as="geometry" />
        </mxCell>
      </root>
    </mxGraphModel>
  </diagram>
</mxfile>
